# xmcd CD database file
#
# Track frame offsets:
#	150
#	47842
#	100375
#	146335
#	182485
#
# Disc length: 2736 seconds
#
# Revision: 3
# Processed by: cddbd v1.5.2PL0 Copyright (c) Steve Scherf et al.
# Submitted via: CDex 1.51
#
DISCID=3d0aae05
DTITLE=George Russell - New York, N.Y.
DYEAR=1959
DGENRE=Jazz
TTITLE0=Manhatten
TTITLE1=Big City Blues
TTITLE2=Manhattan-Rico
TTITLE3=East Side Medley: Autumn In New York - How About You
TTITLE4=A Helluva Town
EXTD=YEAR: 1959
EXTT0=
EXTT1=
EXTT2=
EXTT3=
EXTT4=
PLAYORDER=
